<?xml version="1.0"?>
<svg xmlns="http://www.w3.org/2000/svg" xmlns:xlink="http://www.w3.org/1999/xlink" version="1.1" id="Capa_1" x="0px" y="0px" viewBox="0 0 492.534 492.534" style="enable-background:new 0 0 492.534 492.534;" xml:space="preserve" width="512px" height="512px" class=""><g><path d="M478.377,420.478l-81.118-81.122c-5.596-5.597-13.036-8.679-20.95-8.679c-7.911,0-15.349,3.08-20.945,8.675l-0.377,0.377  l-33.144-33.144c30.23-32.587,48.746-76.187,48.746-124.038C370.589,81.891,288.699,0,188.044,0C87.387,0,5.496,81.89,5.496,182.546  c0,75.45,46.013,140.355,111.45,168.132v109.479c0,17.853,14.524,32.377,32.375,32.377h6.783c16.036,0,28.902-11.638,31.941-28.566  c3.078,16.928,15.947,28.566,31.936,28.566h6.782c17.853,0,32.377-14.524,32.377-32.377V350.678  c15.835-6.722,30.524-15.625,43.708-26.317l33.755,33.754l-0.631,0.632c-5.597,5.595-8.68,13.034-8.68,20.947  c0,7.913,3.082,15.353,8.678,20.949l81.117,81.125c5.596,5.596,13.036,8.677,20.949,8.677c7.913,0,15.352-3.081,20.944-8.675  l19.396-19.395C489.925,450.83,489.927,432.036,478.377,420.478z M344.589,182.547c0,51.583-25.082,97.412-63.686,125.949  c1.617-3.288,2.531-6.983,2.531-10.889c0-0.38-0.017-0.76-0.05-1.138l-9.771-111.214c-0.358-13.344-11.325-24.089-24.752-24.089  h-42.734c21.791-7.522,37.493-28.227,37.493-52.541c0-19.128-9.714-36.029-24.466-46.032c2.644-3.88,4.137-8.319,4.137-13.077  c0-9.078-5.417-17.008-13.964-22.063C285.614,37.87,344.589,103.446,344.589,182.547z M129.946,296.367h-11.137l9.594-109.2h119.278  l9.594,109.2H246.14c-7.18,0-13,5.82-13,13v23.096c-14.287,4.306-29.424,6.631-45.096,6.631c-15.673,0-30.811-2.325-45.098-6.632  v-23.095C142.946,302.188,137.126,296.367,129.946,296.367z M212.716,92.339c3.096,4.674,4.905,10.272,4.905,16.287  c0,16.31-13.268,29.578-29.577,29.578c-15.729,0-28.626-12.341-29.525-27.848L212.716,92.339z M31.496,182.546  c0-77.961,57.287-142.786,131.976-154.611c-8.084,5.07-13.158,12.79-13.158,21.582c0,5.241,1.811,10.098,4.98,14.243  c-13.826,10.12-22.829,26.458-22.829,44.866c0,24.315,15.703,45.019,37.495,52.541h-42.737c-13.426,0-24.391,10.744-24.751,24.086  L92.7,296.468c-0.033,0.378-0.05,0.758-0.05,1.138c0,3.906,0.914,7.601,2.532,10.89C56.579,279.958,31.496,234.128,31.496,182.546z   M156.104,466.534h-6.783c-3.516,0-6.375-2.86-6.375-6.377v-55.706h26.983c-2.79,20.018-5.872,42.409-7.347,54.077  C162.207,461.502,160.42,466.534,156.104,466.534z M226.763,466.534h-6.782c-4.294,0-6.096-5.06-6.484-8.049  c-1.208-9.318-3.684-27.468-7.372-54.034h27.016v55.706C233.14,463.674,230.279,466.534,226.763,466.534z M233.14,378.451h-90.193  v-18.999c14.43,3.68,29.538,5.642,45.098,5.642c15.559,0,30.667-1.962,45.096-5.642V378.451z M459.992,443.989l-19.397,19.397  c-0.875,0.875-1.874,1.059-2.559,1.059c-0.686,0-1.688-0.185-2.565-1.063l-81.115-81.123c-0.879-0.879-1.064-1.88-1.064-2.565  c0-0.684,0.185-1.683,1.064-2.561l19.393-19.396c0.876-0.876,1.876-1.06,2.56-1.06c0.686,0,1.687,0.184,2.565,1.063l81.116,81.12  C461.404,440.275,461.406,442.576,459.992,443.989z" data-original="#000000" class="active-path" data-old_color="#0072FF" fill="#3D00FF"/></g> </svg>
