<?xml version="1.0"?>
<svg xmlns="http://www.w3.org/2000/svg" xmlns:xlink="http://www.w3.org/1999/xlink" version="1.1" id="Capa_1" x="0px" y="0px" viewBox="0 0 58 58" style="enable-background:new 0 0 58 58;" xml:space="preserve" width="512px" height="512px" class=""><g><rect x="3" y="52.475" style="fill:#D1D4D1;" width="5" height="3" data-original="#D1D4D1"/><rect x="50" y="52.475" style="fill:#D1D4D1;" width="5" height="3" data-original="#D1D4D1"/><circle style="fill:#38454F;" cx="45" cy="33.475" r="13" data-original="#38454F" class=""/><path style="fill:#546A79;" d="M15.95,12.475H4c-1.105,0-2-0.895-2-2v0c0-1.105,0.895-2,2-2l12.11,1.863  c0.512,0.079,0.89,0.519,0.89,1.038v0.05C17,12.005,16.53,12.475,15.95,12.475z" data-original="#546A79"/><g>
	<path style="fill:#D1D4D1;" d="M8,45.475c-0.702,0-1.374-0.127-2-0.349v4.349h4v-4.349C9.374,45.348,8.702,45.475,8,45.475z" data-original="#D1D4D1"/>
	<path style="fill:#D1D4D1;" d="M8,33.475c0.702,0,1.374,0.127,2,0.349V12.475H6v21.349C6.626,33.602,7.298,33.475,8,33.475z" data-original="#D1D4D1"/>
</g><path style="fill:#D1D4D1;" d="M45,46.475c-0.682,0-1.346-0.068-2-0.169v3.169h4v-3.169C46.346,46.407,45.682,46.475,45,46.475z" data-original="#D1D4D1"/><circle style="fill:#FFFFFF;stroke:#546A79;stroke-width:2;stroke-miterlimit:10;" cx="45" cy="33.475" r="3" data-original="#FFFFFF"/><path style="fill:#D1D4D1;" d="M45,20.475c0.682,0,1.346,0.068,2,0.169v-4.169h-4v4.169C43.654,20.543,44.318,20.475,45,20.475z" data-original="#D1D4D1"/><polygon style="fill:#38454F;" points="55,2.546 57,2.546 58,3.546 58,5.546 57,6.546 55,6.546 54,5.546 54,3.546 " data-original="#38454F" class=""/><circle style="fill:#38454F;stroke:#546A79;stroke-width:2;stroke-miterlimit:10;" cx="8" cy="39.475" r="6" data-original="#38454F" class=""/><rect y="49.475" style="fill:#556080;" width="58" height="3" data-original="#556080" class=""/></g> </svg>
